<svg width="41" height="41" viewBox="0 0 41 41" fill="none" xmlns="http://www.w3.org/2000/svg">
<path d="M6.94915 0C3.11124 0 0 3.15634 0 7.04987V33.9501C0 37.8437 3.11124 41 6.94915 41H17.9583V22.3993H13.8983V18.062H17.9583V15.6764C17.9583 13.8772 18.1404 12.4154 18.5046 11.2909C18.8688 10.1504 19.3676 9.26684 20.001 8.64033C20.6502 7.99777 21.4023 7.56404 22.2574 7.33914C23.1283 7.11424 24.0625 7.00179 25.0601 7.00179C25.3452 7.00179 25.6618 7.01786 26.0102 7.04998C26.3744 7.08211 26.7307 7.13834 27.079 7.21866C27.4432 7.28291 27.7916 7.36323 28.1241 7.45962C28.4725 7.556 28.7813 7.67649 29.0505 7.82106V12.1102C28.3854 11.9335 27.6412 11.8451 26.8178 11.8451C26.4219 11.8451 26.0419 11.9094 25.6777 12.0379C25.3293 12.1664 25.0205 12.3833 24.7514 12.6885C24.4822 12.9777 24.2684 13.3712 24.1101 13.8692C23.9517 14.3511 23.8725 14.9535 23.8725 15.6764V18.062H28.4092V22.3993H23.8725V41H34.0508C37.8888 41 41 37.8437 41 33.9501V7.04986C41 3.15633 37.8888 0 34.0508 0H6.94915Z" fill="#E3EDCC"/>
<path d="M6.94915 0C3.11124 0 0 3.15634 0 7.04987V33.9501C0 37.8437 3.11124 41 6.94915 41H17.9583V22.3993H13.8983V18.062H17.9583V15.6764C17.9583 13.8772 18.1404 12.4154 18.5046 11.2909C18.8688 10.1504 19.3676 9.26684 20.001 8.64033C20.6502 7.99777 21.4023 7.56404 22.2574 7.33914C23.1283 7.11424 24.0625 7.00179 25.0601 7.00179C25.3452 7.00179 25.6618 7.01786 26.0102 7.04998C26.3744 7.08211 26.7307 7.13834 27.079 7.21866C27.4432 7.28291 27.7916 7.36323 28.1241 7.45962C28.4725 7.556 28.7813 7.67649 29.0505 7.82106V12.1102C28.3854 11.9335 27.6412 11.8451 26.8178 11.8451C26.4219 11.8451 26.0419 11.9094 25.6777 12.0379C25.3293 12.1664 25.0205 12.3833 24.7514 12.6885C24.4822 12.9777 24.2684 13.3712 24.1101 13.8692C23.9517 14.3511 23.8725 14.9535 23.8725 15.6764V18.062H28.4092V22.3993H23.8725V41H34.0508C37.8888 41 41 37.8437 41 33.9501V7.04986C41 3.15633 37.8888 0 34.0508 0H6.94915Z" stroke="#E3EDCC"/>
</svg>
