<svg width="41" height="40" viewBox="0 0 41 40" fill="none" xmlns="http://www.w3.org/2000/svg">
<path d="M20.7857 38C30.7268 38 38.7857 29.9411 38.7857 20C38.7857 10.0589 30.7268 2 20.7857 2C10.8446 2 2.78571 10.0589 2.78571 20C2.78571 22.5046 3.29723 24.8897 4.22152 27.0565C4.47529 27.6515 4.57429 28.3052 4.45694 28.9413L3.02934 36.6796C2.90788 37.3379 3.45505 37.9274 4.12061 37.8552L13.7198 36.8137C14.041 36.7788 14.3651 36.8243 14.669 36.9341C16.5786 37.6239 18.6382 38 20.7857 38Z" stroke="#E3EDCC" stroke-width="4"/>
<path d="M13.1154 18.7321C11.5982 17.0724 11.4129 14.5903 12.6669 12.7237V12.7237C13.6007 11.3338 15.6258 11.2776 16.6352 12.6137L17.5413 13.813C18.1 14.5524 18.0562 15.5841 17.437 16.2736L17.0597 16.6936C16.6468 17.1532 16.6257 17.8435 17.0095 18.3276V18.3276C18.7876 20.5697 20.9326 22.4945 23.3536 24.0203L23.5497 24.1439C24.0421 24.4542 24.6788 24.4097 25.1233 24.0339L25.4558 23.7528C26.1262 23.186 27.0947 23.1432 27.8125 23.6486L28.416 24.0736C29.9875 25.1802 30.0579 27.4851 28.5569 28.6856L28.3814 28.826C27.3258 29.6702 25.8361 29.7043 24.743 28.9093L22.7109 27.4313C19.4512 25.0605 16.4386 22.3672 13.719 19.3923L13.1154 18.7321Z" fill="#E3EDCC"/>
</svg>
